<?xml version="1.0" encoding="UTF-8" standalone="no"?>
<!-- Created with Inkscape (http://www.inkscape.org/) -->

<svg
        width="60"
        height="60"
        viewBox="0 0 60 60"
        version="1.1"
        id="svg5"
        xml:space="preserve"
        inkscape:export-filename="bitmap.svg"
        inkscape:export-xdpi="96"
        inkscape:export-ydpi="96"
        xmlns:inkscape="http://www.inkscape.org/namespaces/inkscape"
        xmlns:sodipodi="http://sodipodi.sourceforge.net/DTD/sodipodi-0.dtd"
        xmlns="http://www.w3.org/2000/svg"
><sodipodi:namedview
     id="namedview7"
     pagecolor="#505050"
     bordercolor="#ffffff"
     borderopacity="1"
     inkscape:showpageshadow="0"
     inkscape:pageopacity="0"
     inkscape:pagecheckerboard="1"
     inkscape:deskcolor="#505050"
     inkscape:document-units="px"
     showgrid="false" /><defs
     id="defs2"><linearGradient
       id="linearGradient2181"
       inkscape:swatch="solid"><stop
         style="stop-color:#246bce;stop-opacity:1;"
         offset="0"
         id="stop2179" /></linearGradient><linearGradient
       id="linearGradient1895"
       inkscape:swatch="solid"><stop
         style="stop-color:#246bce;stop-opacity:1;"
         offset="0"
         id="stop1893" /></linearGradient><filter
       inkscape:collect="always"
       style="color-interpolation-filters:sRGB"
       id="filter2276"
       x="-0.010551428"
       y="-0.023558317"
       width="1.0211097"
       height="1.0472791"><feGaussianBlur
         inkscape:collect="always"
         stdDeviation="0.19566944"
         id="feGaussianBlur2278" /></filter></defs><g
     inkscape:label="Layer 1"
     inkscape:groupmode="layer"
     id="layer1"><path
       style="fill:#ffffff;fill-opacity:1;stroke:#ffffff;stroke-width:0.551;stroke-linejoin:round;stroke-dasharray:none;stroke-opacity:0"
       d="m 13.774165,42.310126 c -0.128503,-0.21139 -3.54192,-11.489767 -3.54192,-11.702965 0,-0.162311 0.298309,-0.211285 1.310363,-0.215124 l 1.310363,-0.005 -0.77387,-0.271892 C 10.740056,29.644714 9.8843882,28.809158 9.3765744,27.47617 9.1804305,26.961301 9.1243739,26.275136 9.1176539,24.306832 c -0.00766,-2.244395 0.025038,-2.58606 0.3067573,-3.205079 0.4610116,-1.012976 1.1644758,-1.750638 2.1284398,-2.231914 0.722929,-0.360935 1.030976,-0.423562 2.048899,-0.416552 0.992894,0.0068 1.329428,0.0773 1.965296,0.411493 1.003573,0.527445 1.943709,1.623892 2.228557,2.599089 0.318005,1.088705 0.305289,4.583654 -0.02098,5.765864 -0.436681,1.582284 -1.878262,2.840593 -3.545545,3.09479 -0.564418,0.08605 -0.695117,0.1597 -0.633366,0.3569 0.04279,0.136661 0.403757,1.239619 0.802143,2.451017 l 0.724337,2.202545 0.812213,-2.430925 0.812212,-2.430926 1.609874,-0.04321 c 1.46061,-0.0392 1.609959,-0.01803 1.610801,0.228382 4.49e-4,0.149378 -0.819782,2.858019 -1.822872,6.0192 L 16.320623,42.42511 H 15.08234 c -0.681056,0 -1.269736,-0.05174 -1.308178,-0.114979 z m 2.576731,-1.141119 c 0.166428,-0.523375 0.955523,-3.007024 1.753543,-5.519222 0.798021,-2.512198 1.483237,-4.653276 1.522704,-4.757951 0.05408,-0.143442 -0.255745,-0.190318 -1.25793,-0.190318 h -1.329687 l -0.83122,2.550262 c -0.837078,2.568234 -1.178365,3.12382 -1.390657,2.263868 -0.05129,-0.207766 -0.437442,-1.375939 -0.858116,-2.595942 L 13.194672,30.701516 H 11.88465 10.574627 l 1.735758,5.709541 1.735757,5.70954 H 15.047221 16.0483 Z M 15.429383,29.543248 c 0.878702,-0.428259 1.444182,-1.034886 1.90076,-2.039075 0.274165,-0.602992 0.311727,-0.977241 0.313265,-3.121215 0.0016,-2.240707 -0.02679,-2.500263 -0.354115,-3.236514 -1.38558,-3.11661 -5.938566,-3.176804 -7.4409114,-0.09838 -0.2544868,0.521466 -0.2900373,0.930229 -0.2900373,3.33489 v 2.740579 l 0.4436167,0.814258 c 1.04867,1.924828 3.365793,2.610243 5.427422,1.605453 z m 2.23462,12.760608 c -0.04054,-0.06668 0.689177,-2.75588 1.621592,-5.975985 0.932414,-3.220105 1.642425,-5.888994 1.577801,-5.930864 -0.141823,-0.09189 -2.993608,-11.249961 -2.993608,-11.712981 0,-0.314888 0.0521,-0.324021 1.609874,-0.282204 l 1.609874,0.04321 0.516966,2.169625 c 0.284332,1.193294 0.557639,2.169626 0.607351,2.169626 0.04971,0 0.31645,-0.993461 0.592752,-2.207689 l 0.502366,-2.20769 h 1.178758 c 0.949688,0 1.196895,0.04805 1.272092,0.247287 0.05134,0.136008 0.311248,1.180854 0.577586,2.32188 0.266336,1.141026 0.521103,1.971822 0.566148,1.846212 0.04505,-0.12561 0.295997,-1.170456 0.557668,-2.321881 l 0.475767,-2.093498 h 1.705406 c 1.538545,0 1.705408,0.02664 1.705408,0.272393 0,0.149816 -0.72837,2.856139 -1.618599,6.01405 l -1.618598,5.741656 h 1.244208 1.24421 l 2.99e-4,3.768297 c 3e-4,4.17512 0.09513,4.67962 0.935742,4.976027 0.605529,0.213515 1.188485,-0.04986 1.497325,-0.676472 0.228132,-0.462869 0.261869,-1.016352 0.262072,-4.299555 l 1.65e-4,-3.768297 h -0.673901 -0.673901 v -6.014049 -6.01405 h 1.42268 1.422679 v 1.255423 1.255423 l 0.852515,-1.255423 0.852513,-1.255423 h 1.693334 c 1.147435,0 1.693333,0.05484 1.693333,0.170092 0,0.09355 -0.909432,1.412454 -2.020961,2.930898 -1.111529,1.518443 -2.038142,2.809834 -2.059141,2.86976 -0.021,0.05993 0.861917,1.333772 1.962038,2.830772 l 2.000218,2.721817 -0.02339,4.820013 -0.02339,4.820012 h 1.579869 1.579869 v 1.446416 1.446417 h -2.995115 -2.995114 v -6.014048 c 0,-4.815177 -0.03858,-6.01405 -0.193558,-6.01405 -0.106457,0 -0.578188,-0.527463 -1.04829,-1.172141 l -0.854733,-1.17214 v 1.163798 1.163799 l 0.71134,0.0464 0.71134,0.04641 v 4.263124 c 0,3.816841 -0.02965,4.341279 -0.283244,5.009716 -0.339249,0.894221 -1.13869,1.833609 -1.893712,2.225219 -1.271082,0.659286 -3.233382,0.571037 -4.506906,-0.202674 -0.673279,-0.40904 -0.884561,-0.653675 -1.326523,-1.535925 L 27.678785,39.1832 v -4.392873 -4.392869 l -1.070696,-2.29e-4 -1.070697,-2.28e-4 -0.237378,-1.103845 c -0.130557,-0.607114 -0.313612,-1.480674 -0.406789,-1.941243 -0.09317,-0.46057 -0.213187,-0.920084 -0.266694,-1.021142 -0.05351,-0.101058 -0.334993,0.772502 -0.625528,1.941244 l -0.528245,2.124995 h 0.617904 0.617904 l 1.672304,5.76032 c 0.919767,3.168176 1.672304,5.874499 1.672304,6.014049 0,0.220547 -0.203792,0.253729 -1.558272,0.253729 H 24.93663 l -0.463513,-1.332226 c -0.652192,-1.874521 -0.57198,-1.78899 -1.677715,-1.78899 h -0.95709 l -0.522753,1.560608 -0.522752,1.560608 h -1.52755 c -0.840154,0 -1.56072,-0.05456 -1.601257,-0.121249 z m 3.387633,-1.743867 0.511205,-1.560607 1.171822,-0.0449 c 0.702995,-0.02693 1.237419,0.02132 1.335782,0.120597 0.09018,0.09102 0.371629,0.796366 0.625444,1.567437 l 0.461483,1.401948 1.29567,0.04396 c 1.00632,0.03413 1.280594,1.38e-4 1.228159,-0.152255 -0.06412,-0.186339 -2.467605,-8.499317 -2.996553,-10.364217 l -0.249735,-0.880489 -1.587438,0.04309 -1.587436,0.04309 -1.614259,5.557285 c -0.887843,3.056507 -1.616955,5.608672 -1.620248,5.671477 -0.0033,0.06281 0.561211,0.114191 1.254456,0.114191 h 1.260443 z m 12.804757,1.079367 c 0.767771,-0.370684 1.437056,-1.159916 1.779616,-2.098557 0.207083,-0.567417 0.264971,-1.434965 0.318055,-4.766477 l 0.06489,-4.072806 h -1.212411 -1.212409 v 3.737795 c 0,3.999687 -0.05439,4.337736 -0.781244,4.855337 -0.183528,0.130693 -0.57326,0.237624 -0.866069,0.237624 -0.292808,0 -0.68254,-0.106931 -0.866068,-0.237624 -0.726852,-0.517601 -0.781245,-0.85565 -0.781245,-4.855337 v -3.737795 h -1.215392 -1.215393 l 0.06816,4.072806 c 0.06214,3.713201 0.0967,4.147434 0.391373,4.918042 0.318712,0.833473 0.969242,1.611263 1.641271,1.96235 0.994387,0.519495 2.793783,0.512384 3.88686,-0.01536 z m 8.72309,-0.655341 v -1.136581 l -1.534996,-0.04339 -1.534996,-0.04339 -0.03967,-4.529568 -0.03967,-4.529568 h -1.120939 -1.12094 v 5.70954 5.709539 h 2.695603 2.695603 z M 23.801052,27.694492 c 0.698823,-2.873874 0.879216,-3.028558 1.287311,-1.103845 0.150921,0.711789 0.381082,1.790892 0.511473,2.398007 l 0.237071,1.103844 h 1.006485 1.006485 l 1.578898,-5.671476 1.578899,-5.671477 -1.34658,-0.04404 c -0.740618,-0.02422 -1.369225,-0.021 -1.396903,0.0072 -0.02768,0.02814 -0.309276,1.178246 -0.625771,2.55579 -0.395223,1.720204 -0.643171,2.517729 -0.791685,2.54646 -0.164068,0.03174 -0.357924,-0.583429 -0.803515,-2.549819 l -0.587277,-2.591649 h -0.929258 -0.929257 l -0.331468,1.484481 c -0.690715,3.09337 -0.843826,3.616041 -1.059281,3.616041 -0.150837,0 -0.38297,-0.735922 -0.804435,-2.550261 l -0.592417,-2.550261 h -1.330355 c -1.196104,0 -1.322691,0.02689 -1.254401,0.266445 0.169834,0.595765 2.789587,10.990198 2.789587,11.068284 0,0.04639 0.49574,0.08435 1.101642,0.08435 h 1.101644 z m 10.691622,1.179972 c 0,-0.964476 0.04536,-1.218036 0.217903,-1.218036 0.119847,0 0.628302,0.548116 1.129898,1.218036 l 0.911995,1.218034 h 1.358846 1.358846 l -0.366388,-0.494827 c -2.764652,-3.73381 -3.712566,-5.062122 -3.712566,-5.202425 0,-0.137069 1.625572,-2.427023 3.710495,-5.227001 l 0.368459,-0.494827 h -1.358326 -1.358325 l -0.877615,1.255829 c -1.200146,1.717355 -1.383222,1.723906 -1.383222,0.0495 v -1.305329 h -1.123168 -1.123168 v 5.709541 5.70954 h 1.123168 1.123168 z m 9.883878,8.988937 v -4.561704 l -1.310363,-0.04399 -1.310362,-0.04399 v -1.408578 -1.408574 l -0.636462,2.13e-4 -0.636462,2.28e-4 v -6.014048 -6.01405 h 3.669015 3.669016 v 1.446417 1.446417 h -2.246336 -2.246336 v 0.8374 0.837399 h 1.647313 1.647313 v 1.446417 1.446416 h -1.647313 -1.647313 v 0.8374 0.837399 h 2.246336 2.246336 v 1.439461 1.43946 l 1.010851,0.04502 1.010851,0.04502 v 1.370291 1.370289 l -1.310363,0.04399 -1.310362,0.04399 v 4.561704 4.561705 h -1.42268 -1.422679 z m 2.545847,-0.310437 v -4.567632 h 1.272924 1.272924 V 31.843425 30.701516 H 45.724354 41.98046 v 1.135981 1.13598 l 1.310363,0.04399 1.310363,0.04399 0.03967,4.529568 0.03967,4.529569 h 1.12094 1.120939 z m 0.599023,-8.598304 v -1.137837 l -2.208897,-0.04213 -2.208897,-0.04213 v -1.065781 -1.065781 l 1.609874,-0.04321 1.609874,-0.04321 v -1.131617 -1.131606 l -1.609874,-0.04321 -1.609874,-0.04321 v -1.065782 -1.06578 l 2.208897,-0.04213 2.208897,-0.04213 v -1.13786 -1.137838 h -3.369504 -3.369504 v 5.70954 5.70954 h 3.369504 3.369504 z M 2.8942144,24.382958 v -6.014049 h 1.4226794 1.4226794 v 4.567632 4.567632 h 1.5724352 1.5724351 v 1.446418 1.446416 H 5.889329 2.8942144 Z m 5.6907177,4.572959 V 27.819335 L 7.0499359,27.775946 5.5149396,27.732555 5.4752722,23.202987 5.4356049,18.673418 H 4.3146653 3.1937258 v 5.70954 5.70954 H 5.889329 8.5849321 Z m 42.7802209,1.339587 c -0.05491,-0.05583 -0.09984,-1.401923 -0.09984,-2.991327 v -2.889825 l -1.42268,-2.815259 c -0.782474,-1.548392 -1.422679,-2.908617 -1.422679,-3.022721 0,-0.161685 0.340344,-0.207463 1.542451,-0.207463 h 1.542449 l 0.584115,1.218035 c 0.321264,0.66992 0.623286,1.218035 0.671163,1.218035 0.04788,0 0.331947,-0.548115 0.631267,-1.218035 l 0.544217,-1.218035 h 1.585085 c 1.033409,0 1.585085,0.05712 1.585085,0.164141 0,0.09028 -0.707596,1.48788 -1.572435,3.105785 l -1.572435,2.941643 v 2.908265 2.908264 h -1.247964 c -0.686382,0 -1.292892,-0.04568 -1.347802,-0.101503 z m 2.296888,-3.057775 5.99e-4,-2.854771 1.136773,-2.131562 c 0.625226,-1.172358 1.299977,-2.457005 1.499447,-2.85477 l 0.362674,-0.723208 h -1.199066 -1.199065 l -0.68206,1.380722 c -0.383794,0.77693 -0.761009,1.357436 -0.862599,1.327473 -0.09929,-0.02929 -0.466183,-0.650612 -0.815306,-1.380722 l -0.634735,-1.327473 h -1.19974 c -0.659856,0 -1.199739,0.04545 -1.199739,0.10099 0,0.05554 0.606511,1.292498 1.347801,2.748787 l 1.347802,2.647797 v 2.960753 2.960753 h 1.04829 1.04829 l 5.99e-4,-2.854769 z"
       id="path997" /><path
       style="fill:#ffffff;fill-opacity:1;stroke:#ffffff;stroke-width:0.2;stroke-linejoin:round;stroke-dasharray:none;stroke-opacity:0;paint-order:markers fill stroke;filter:url(#filter2276)"
       d="m 13.774165,42.310126 c -1.244681,-3.880382 -2.426513,-7.783482 -3.54192,-11.702965 0.273119,-0.510323 3.013088,0.02957 2.262882,-0.345849 C 10.26917,29.762069 8.8597286,27.51013 9.1272356,25.2861 9.0135514,23.05843 8.9065656,20.2865 11.20354,19.062373 c 2.39202,-1.543185 6.008246,-0.193781 6.647817,2.632674 0.18537,2.18877 0.526235,4.647781 -0.580489,6.650027 -0.350597,2.02957 -4.352629,1.183707 -3.407433,3.158831 0.418292,1.277452 0.839018,2.554104 1.258757,3.83108 0.541476,-1.620617 1.082951,-3.241234 1.624425,-4.861851 0.985946,0.157234 2.783119,-0.53813 3.18362,0.35704 -1.122248,3.889568 -2.397924,7.732668 -3.609614,11.594936 -0.847354,-0.02401 -1.713982,0.07249 -2.546458,-0.114984 z m 2.576731,-1.141119 c 1.06094,-3.455354 2.27351,-6.91902 3.243443,-10.367425 -0.769748,0.137954 -2.457425,-0.640418 -2.71153,0.380756 -0.569974,1.559449 -0.884855,3.24876 -1.752569,4.672086 -0.766839,-0.972089 -0.986845,-2.715038 -1.541626,-4.01043 -0.118384,-0.930948 -0.580279,-1.380089 -1.531805,-1.142478 -0.664104,0.06138 -1.937781,-0.329042 -1.261538,0.725778 1.083624,3.564434 2.167247,7.128868 3.250871,10.693303 0.664685,-0.176564 1.87393,0.391466 2.117096,-0.361453 0.06255,-0.196712 0.125105,-0.393425 0.187658,-0.590137 z M 15.429383,29.543248 c 2.310206,-1.011254 2.338208,-3.769103 2.212694,-5.912489 0.368721,-2.31364 -1.335083,-4.756423 -3.748707,-4.843854 -2.299731,-0.271859 -4.6476203,1.744041 -4.3254946,4.133837 0.041336,1.428123 -0.098547,2.90956 0.050955,4.313813 0.7961306,2.112009 3.2717986,3.419008 5.4213756,2.47739 l 0.389177,-0.168701 z m 2.23462,12.760608 c 0.922353,-4.00476 2.319625,-7.891542 3.199393,-11.906849 -1.122482,-3.867986 -2.113492,-7.782338 -2.993608,-11.712981 0.747227,-0.632452 2.179059,-0.133425 3.219748,-0.238994 0.367191,1.447869 0.634605,2.92756 1.124317,4.339251 0.4809,-1.438136 0.737737,-2.942188 1.095118,-4.415379 1.141114,0.02585 2.877287,-0.357157 2.742178,1.368944 0.271563,1.211675 0.885566,4.538664 1.218881,1.555441 0.22558,-0.974048 0.444723,-1.949571 0.66696,-2.924385 1.117207,0.05064 2.269903,-0.12135 3.360702,0.126155 -0.363322,2.388831 -1.238125,4.761407 -1.842919,7.13378 -0.448055,1.589388 -0.896111,3.178776 -1.344166,4.768164 0.829473,0 1.658945,0 2.488418,0 0.08014,2.711474 -0.21761,5.465792 0.270636,8.140483 2.118976,2.180436 2.795988,-1.95715 2.423728,-3.518586 0.0022,-1.540631 7.06e-4,-3.081265 0.0012,-4.621897 -0.767825,0.02356 -1.698281,0.209743 -1.347802,-0.885005 0,-3.714364 0,-7.428729 0,-11.143094 0.948453,0 1.896906,0 2.845359,0 0,0.836949 0,1.673897 0,2.510846 0.568343,-0.836948 1.136686,-1.673897 1.705028,-2.510846 1.123514,0.05868 2.313168,-0.14858 3.386667,0.170092 -1.242237,2.012349 -2.756388,3.842148 -4.080102,5.800658 1.211777,1.924122 2.635529,3.70651 3.962256,5.552589 -0.01559,3.213342 -0.03119,6.426683 -0.04678,9.640025 1.053246,0 2.106492,0 3.159738,0 0,0.964278 0,1.928555 0,2.892833 -1.996743,0 -3.993486,0 -5.990229,0 -0.03141,-3.921569 0.08213,-7.847908 -0.09793,-11.765537 -0.585437,-0.654023 -1.552548,-2.117209 -1.998648,-2.480413 0,0.733723 0,1.467445 0,2.201168 0.77505,0.04409 1.779047,-0.126294 1.42268,0.977815 -0.06126,2.711113 0.167727,5.448345 -0.198264,8.137209 -0.613871,2.305103 -3.236728,3.460563 -5.422872,2.72396 -1.568811,-0.304795 -2.447834,-1.781233 -2.914941,-3.162532 0,-2.886438 0,-5.772875 0,-8.659313 -0.684291,-0.08884 -1.650477,0.171208 -2.167974,-0.124061 -0.337566,-1.247048 -0.467049,-2.988623 -0.963737,-3.846295 -0.465051,1.291665 -0.725651,2.644357 -1.074316,3.969908 0.926596,-0.180263 1.519637,0.08364 1.553048,1.092745 1.017952,3.557899 2.105633,7.097589 3.027368,10.681624 -0.793861,0.379745 -2.316363,0.341426 -3.158089,0.134321 -0.544341,-0.985137 -0.403108,-2.84774 -1.736877,-3.001822 -1.031089,-0.235772 -1.622016,0.140044 -1.721463,1.198838 -0.287224,0.598506 -0.334348,1.530649 -0.770367,1.922392 -0.997784,-0.02674 -2.022147,0.07699 -3.002375,-0.121252 z m 3.387633,-1.743867 c 0.31538,-0.672652 0.228514,-1.878548 1.269224,-1.589652 1.767375,-0.573022 2.280743,1.012493 2.612212,2.392721 0.03459,1.152182 1.393003,0.554157 2.143785,0.737405 1.372253,-0.424993 -0.67537,-3.047312 -0.593868,-4.282099 -0.685442,-2.374839 -1.374854,-4.748558 -2.048076,-7.126901 -1.058291,0.02873 -2.116583,0.05745 -3.174874,0.08618 -1.080371,3.742269 -2.190455,7.476177 -3.234507,11.228762 0.846804,-0.113085 2.654511,0.731102 2.751038,-0.606694 0.09169,-0.279907 0.183377,-0.559815 0.275066,-0.839722 z m 12.804757,1.079367 c 2.257309,-1.104508 2.056094,-3.878078 2.082495,-5.991231 0.02882,-1.648834 0.05322,-3.297742 0.08007,-4.946609 -0.808273,0 -1.616547,0 -2.42482,0 -0.06761,2.626391 0.179399,5.283104 -0.214635,7.884017 -1.765974,2.612104 -3.847085,-0.805271 -3.076234,-2.810476 -0.0071,-1.691168 -0.0024,-3.382361 -0.0038,-5.073541 -0.810262,0 -1.620523,0 -2.430785,0 0.120813,2.901814 -0.09005,5.8398 0.360662,8.710576 0.638095,2.508468 3.483052,3.181251 5.627008,2.227264 z m 8.72309,-0.655341 c 0.268631,-1.061436 -0.283675,-1.324813 -1.263788,-1.172305 -0.550078,-0.195514 -1.867564,0.361557 -1.809526,-0.430329 -0.02534,-2.893288 -0.05068,-5.786575 -0.07602,-8.679863 -0.704869,0.08457 -1.747464,-0.168591 -2.241879,0.126429 0,3.764217 0,7.528433 0,11.29265 1.797069,0 3.594137,0 5.391206,0 2e-6,-0.378861 3e-6,-0.757721 5e-6,-1.136582 z M 23.801052,27.694492 c 0.108512,-1.13771 1.014461,-3.613797 1.287311,-1.103845 0.432358,1.042966 0.236692,2.866496 1.001402,3.501851 0.683397,-0.150102 1.925776,0.435653 1.92965,-0.608987 0.996086,-3.577989 1.992172,-7.155978 2.988259,-10.733966 -1.167355,0.112937 -3.139807,-0.706196 -3.03947,1.112336 -0.436595,1.171393 -0.412309,3.227574 -1.253573,3.844579 -0.579372,-1.631032 -0.844517,-3.354529 -1.258688,-5.032973 -0.595424,0.187824 -1.819597,-0.408977 -1.94117,0.370172 -0.368589,1.536385 -0.613426,3.112418 -1.148818,4.600349 -0.855638,-0.481306 -0.854149,-2.481798 -1.249785,-3.651762 -0.105053,-0.860326 -0.275532,-1.638286 -1.317777,-1.318759 -3.036612,-0.638818 -0.419076,2.997074 -0.493247,4.495369 0.572599,2.279082 1.156044,4.555543 1.709512,6.83936 0.86109,-0.04882 2.506128,0.625872 2.412388,-0.775597 0.124669,-0.512709 0.249337,-1.025418 0.374006,-1.538127 z m 10.691622,1.179972 c -0.249868,-2.411014 1.369617,-0.01608 1.95401,0.809635 0.359254,0.77959 1.368533,0.260438 2.04392,0.408399 2.05541,0.380303 -0.44387,-1.532761 -0.756065,-2.349416 -1.233431,-1.697865 -3.399093,-3.570151 -1.00787,-5.330305 0.740702,-1.198766 2.2139,-2.740669 2.617064,-3.739359 -0.868704,0.0707 -1.884016,-0.139912 -2.662643,0.103632 -0.67642,0.76194 -1.125765,2.13988 -2.067201,2.374676 -0.553679,-0.640065 0.517367,-2.590652 -0.626932,-2.478308 -0.638062,0.15286 -2.030465,-0.448621 -1.740619,0.632146 0,3.595645 0,7.19129 0,10.786935 0.706622,-0.0843 1.750128,0.168284 2.246336,-0.126429 0,-0.363869 0,-0.727737 0,-1.091606 z m 9.883878,8.988937 c 0,-1.520568 0,-3.041136 0,-4.561704 -0.873575,-0.02933 -1.74715,-0.05865 -2.620725,-0.08798 0,-0.939051 0,-1.878101 0,-2.817152 -0.759511,0.04045 -1.615933,0.177881 -1.272924,-0.884564 0,-3.714364 0,-7.428729 0,-11.143093 2.44601,0 4.892021,0 7.338031,0 0,0.964278 0,1.928556 0,2.892834 -1.497557,0 -2.995115,0 -4.492672,0 0.1476,0.621382 -0.438769,1.976732 0.632146,1.674799 0.887493,0 1.774987,0 2.66248,0 0,0.964278 0,1.928555 0,2.892833 -1.098209,0 -2.196417,0 -3.294626,0 0.1476,0.621382 -0.438769,1.976732 0.632146,1.674799 1.286842,0 2.573684,0 3.860526,0 0,0.95964 0,1.919281 0,2.878921 0.618319,0.125318 1.614592,-0.11086 2.021702,0.216469 0,0.871384 0,1.742767 0,2.614151 -0.873575,0.02933 -1.74715,0.05865 -2.620725,0.08798 0,3.041136 0,6.082273 0,9.123409 -0.948453,0 -1.896906,0 -2.845359,0 0,-1.520567 0,-3.041135 0,-4.561702 z m 2.545847,-0.310437 c 0,-1.522544 0,-3.045088 0,-4.567632 0.848616,0 1.697232,0 2.545848,0 0,-0.761272 0,-1.522544 0,-2.283816 -2.495929,0 -4.991858,0 -7.487787,0 0.08274,0.719458 -0.16643,1.759864 0.126358,2.276203 0.831456,0.02791 1.662912,0.05582 2.494368,0.08374 0.02645,3.019712 0.05289,6.039425 0.07934,9.059137 0.704869,-0.08457 1.747464,0.168592 2.241879,-0.126429 -2e-6,-1.4804 -4e-6,-2.960801 -6e-6,-4.441201 z m 0.599023,-8.598304 c 0.268197,-1.06384 -0.282757,-1.324005 -1.264062,-1.161946 -1.051244,-0.02005 -2.102488,-0.0401 -3.153732,-0.06015 0.0913,-0.663781 -0.176087,-1.676751 0.126384,-2.134954 1.031121,-0.02768 2.062243,-0.05535 3.093364,-0.08303 -0.08327,-0.715488 0.167063,-1.755741 -0.126384,-2.266615 -1.031121,-0.02768 -2.062243,-0.05535 -3.093364,-0.08303 0.09132,-0.663072 -0.176118,-1.678119 0.126406,-2.133973 1.430463,-0.02728 2.860925,-0.05457 4.291388,-0.08185 -0.08257,-0.718144 0.16627,-1.767688 -0.126429,-2.275698 -2.204193,0 -4.408386,0 -6.612579,0 0,3.80636 0,7.61272 0,11.41908 2.246336,0 4.492672,0 6.739008,0 0,-0.379279 0,-0.758559 0,-1.137838 z M 2.8942144,24.382958 c 0,-2.004683 0,-4.009366 0,-6.014049 0.9484529,0 1.8969059,0 2.8453588,0 0,3.045088 0,6.090176 0,9.135264 1.0482901,0 2.0965802,0 3.1448703,0 0,0.964278 0,1.928556 0,2.892834 -1.996743,0 -3.9934861,0 -5.9902291,0 0,-2.004683 0,-4.009366 0,-6.014049 z m 5.6907177,4.572959 C 8.8535623,27.894481 8.3012581,27.631103 7.3211445,27.783612 6.7710659,27.588098 5.4535797,28.145168 5.5116181,27.353282 5.4862801,24.459994 5.4609431,21.566706 5.4356051,18.673418 4.7307357,18.757988 3.6881414,18.504827 3.193726,18.799847 c 0,3.764217 0,7.528434 0,11.292651 1.7970688,0 3.5941375,0 5.3912063,0 0,-0.37886 0,-0.757721 -2e-7,-1.136581 z m 42.7802209,1.339587 c -0.225952,-1.982408 0.01192,-4.026184 -0.156863,-5.993991 -0.939044,-1.903345 -1.970413,-3.76575 -2.788336,-5.725141 0.880481,-0.277103 2.266215,-0.313605 3.139569,-0.09346 0.538809,1.131854 1.312476,3.335141 1.883451,0.988605 0.198779,-0.899123 0.700005,-1.33185 1.630505,-1.102604 2.058606,-0.441299 2.269654,0.63103 1.070419,2.114789 -0.687359,1.420102 -1.583108,2.783469 -2.182982,4.223209 0,1.8967 0,3.7934 0,5.6901 -0.864348,-0.02003 -1.742341,0.06193 -2.595763,-0.101503 z m 2.296888,-3.057775 c 0.07715,-1.016635 -0.155169,-2.110669 0.119586,-3.077884 0.96816,-1.82446 1.958821,-3.637494 2.879907,-5.486427 -0.799377,0 -1.598754,0 -2.398131,0 -0.529352,0.802943 -0.856794,2.411277 -1.664843,2.582772 -0.782591,-0.624307 -0.706575,-2.419717 -1.709145,-2.582772 -1.601059,-0.22693 -2.533199,0.247515 -1.195716,1.813717 0.589096,1.279705 1.369604,2.510877 1.871128,3.810286 0,1.931692 0,3.863385 0,5.795077 0.647535,-0.09349 1.660412,0.178443 2.096607,-0.126429 2.14e-4,-0.909435 3.34e-4,-1.818964 6.07e-4,-2.72834 z"
       id="path1901" /><path
       style="fill:#246bce;fill-opacity:1;stroke:#ffffff;stroke-width:0.0395158;stroke-linejoin:round;stroke-dasharray:none;stroke-opacity:0"
       d="M 12.406972,29.807816 C 11.362168,29.507589 10.562291,28.83471 9.9460796,27.73764 l -0.3719132,-0.662135 0.00313,-2.063096 c 0.00423,-2.791629 0.05944,-3.408251 0.3601717,-4.022606 0.3183029,-0.650252 1.0874249,-1.41869 1.7217179,-1.720188 0.656883,-0.312236 1.218931,-0.444007 1.893836,-0.444007 1.814319,0 3.307645,1.099089 3.897636,2.868664 0.139765,0.4192 0.206848,3.950251 0.09166,4.824592 -0.210148,1.59511 -1.408637,2.896251 -3.052697,3.314165 -0.561652,0.142769 -1.53924,0.130934 -2.082643,-0.02521 z"
       id="path2254" /><path
       style="fill:#246bce;fill-opacity:1;stroke:#ffffff;stroke-width:0.0395158;stroke-linejoin:round;stroke-dasharray:none;stroke-opacity:0"
       d="m 21.389861,30.032416 c -0.280569,-0.02214 -0.346488,-0.05447 -0.375707,-0.184294 -0.104572,-0.464614 -1.348969,-5.428296 -2.006915,-8.005227 -0.526069,-2.060418 -0.735669,-2.993951 -0.683848,-3.045773 0.04323,-0.04323 0.570696,-0.0867 1.251645,-0.103135 l 1.176922,-0.02841 0.07308,0.277237 c 0.04019,0.15248 0.239677,0.987231 0.443301,1.855002 0.450651,1.920507 0.689384,2.764912 0.818882,2.8964 0.285019,0.289397 0.431875,-0.108788 1.077084,-2.92041 0.256475,-1.11764 0.466318,-2.045474 0.466318,-2.061852 0,-0.01638 0.403406,-0.02978 0.896458,-0.02978 0.493052,0 0.896457,0.01115 0.896457,0.02478 0,0.01363 0.222838,0.989875 0.495193,2.169428 0.679383,2.942347 0.852916,3.355897 1.133162,2.700445 0.08054,-0.188366 1.207956,-4.563932 1.23807,-4.805012 0.0059,-0.04686 2.655425,-0.01105 2.653186,0.03586 -0.0014,0.02958 -0.704632,2.57104 -1.562708,5.647682 l -1.56014,5.593895 -0.983231,0.01995 c -0.540778,0.01097 -0.983232,-0.0059 -0.983232,-0.0376 0,-0.136964 -0.925381,-4.304418 -0.99576,-4.484403 -0.10086,-0.25794 -0.27411,-0.322979 -0.40114,-0.150591 -0.135506,0.183889 -0.447609,1.2696 -0.899383,3.128667 l -0.379058,1.559837 -0.724182,-0.01293 c -0.3983,-0.0071 -0.877303,-0.02501 -1.064451,-0.03977 z"
       id="path2256" /><path
       style="fill:#246bce;fill-opacity:1;stroke:#ffffff;stroke-width:0.0395158;stroke-linejoin:round;stroke-dasharray:none;stroke-opacity:0"
       d="m 32.308329,24.383645 v -5.70147 h 1.075749 1.075749 v 1.065047 c 0,2.029473 0.183712,2.01958 1.654078,-0.08907 l 0.676712,-0.970472 1.309074,-0.0028 1.309074,-0.0028 -0.810054,1.093678 c -2.149777,2.902478 -3.206568,4.429203 -3.206568,4.632464 0,0.179584 0.965686,1.554928 3.394239,4.834127 l 0.624076,0.842671 -1.309921,-0.0034 -1.30992,-0.0034 -0.635024,-0.850643 c -0.76957,-1.030875 -1.268173,-1.580996 -1.432936,-1.580996 -0.203566,0 -0.26283,0.316384 -0.26283,1.403143 v 1.035222 h -1.075749 -1.075749 z"
       id="path2258" /><path
       style="fill:#246bce;fill-opacity:1;stroke:#ffffff;stroke-width:0.0395158;stroke-linejoin:round;stroke-dasharray:none;stroke-opacity:0"
       d="m 40.842605,24.383645 v -5.70147 h 3.334822 3.334822 v 1.100451 1.100452 l -1.021962,0.04675 c -0.562079,0.02571 -1.562525,0.04687 -2.223214,0.04701 l -1.201254,2.62e-4 v 1.10041 1.10041 l 1.087152,0.04706 c 0.597933,0.02588 1.324064,0.04706 1.613624,0.04706 h 0.526472 v 1.111608 1.111607 l -0.591662,2.65e-4 c -0.325414,1.44e-4 -1.051545,0.0213 -1.613624,0.04701 l -1.021962,0.04675 v 1.100451 1.100452 h 1.243702 c 0.684036,0 1.684482,0.02114 2.223214,0.04698 l 0.979514,0.04698 v 1.100489 1.10049 h -3.334822 -3.334822 z"
       id="path2260" /><path
       style="fill:#246bce;fill-opacity:1;stroke:#ffffff;stroke-width:0.0395158;stroke-linejoin:round;stroke-dasharray:none;stroke-opacity:0"
       d="m 51.60174,27.126805 0.0016,-2.95831 -1.346299,-2.6655 c -0.740464,-1.466024 -1.324847,-2.686951 -1.298628,-2.71317 0.02622,-0.02622 0.542564,-0.06516 1.147433,-0.08653 l 1.099763,-0.03886 0.489589,0.994977 c 0.603515,1.226503 0.911151,1.748001 1.031162,1.748001 0.152452,0 0.465671,-0.497583 1.028695,-1.634199 l 0.534368,-1.078762 1.170803,-0.0061 1.170804,-0.0061 -0.481728,0.914386 c -0.26495,0.502913 -0.945106,1.78877 -1.511457,2.85746 l -1.02973,1.943073 v 2.84401 2.844011 H 52.604083 51.60005 l 0.0016,-2.95831 z"
       id="path2262" /><path
       style="fill:#246bce;fill-opacity:1;stroke:#ffffff;stroke-width:0.0395158;stroke-linejoin:round;stroke-dasharray:none;stroke-opacity:0"
       d="m 44.691212,38.995902 c -0.02609,-1.686236 -0.04749,-3.714442 -0.04754,-4.507124 l -9.1e-5,-1.44124 -0.871859,-0.04688 c -0.479522,-0.02578 -1.076563,-0.04688 -1.326757,-0.04688 H 41.99007 V 31.84217 30.730563 h 3.729264 3.729263 v 1.111607 1.111608 h -1.290899 -1.290899 v 4.554004 4.554004 h -1.064071 -1.064071 z"
       id="path2264" /><path
       style="fill:#246bce;fill-opacity:1;stroke:#ffffff;stroke-width:0.0395158;stroke-linejoin:round;stroke-dasharray:none;stroke-opacity:0"
       d="m 37.256775,36.396175 v -5.665611 h 1.064196 1.064197 l 0.05028,4.497108 c 0.02765,2.473409 0.06777,4.514642 0.08914,4.536075 0.02137,0.02143 0.705873,0.05826 1.52111,0.08184 0.815238,0.02358 1.490318,0.04779 1.500179,0.05379 0.0099,0.006 0.01793,0.494997 0.01793,1.086659 v 1.075749 h -2.653514 -2.653514 z"
       id="path2266" /><path
       style="fill:#246bce;fill-opacity:1;stroke:#ffffff;stroke-width:0.0395158;stroke-linejoin:round;stroke-dasharray:none;stroke-opacity:0"
       d="m 30.802281,41.896939 c -0.603095,-0.13801 -1.071733,-0.397059 -1.510986,-0.835231 -0.770087,-0.768191 -1.102856,-1.563335 -1.208599,-2.887922 -0.03869,-0.484634 -0.09305,-2.357619 -0.120798,-4.162188 l -0.05046,-3.281034 h 1.148046 1.148045 l 0.0503,3.460326 c 0.02767,1.903179 0.0826,3.670097 0.122086,3.926484 0.100738,0.654182 0.332164,1.017973 0.793985,1.248108 0.637922,0.317889 1.397148,0.224823 1.875922,-0.229951 0.510651,-0.485053 0.549401,-0.837308 0.549401,-4.994237 v -3.41073 h 1.183324 1.183324 l -0.0017,1.165395 c -0.0033,2.208556 -0.135115,6.402521 -0.21805,6.937047 -0.218674,1.409388 -1.126221,2.517225 -2.426806,2.962389 -0.511137,0.174952 -1.943663,0.232745 -2.517003,0.101544 z"
       id="path2268" /><path
       style="fill:#246bce;fill-opacity:1;stroke:#ffffff;stroke-width:0.0395158;stroke-linejoin:round;stroke-dasharray:none;stroke-opacity:0"
       d="m 18.185648,41.994981 c -0.08525,-0.05396 -0.04125,-0.278986 0.26679,-1.364442 0.449914,-1.585397 2.825026,-9.78857 2.838055,-9.802089 0.0051,-0.0053 0.705381,-0.0329 1.556101,-0.06128 l 1.546763,-0.05159 0.668361,2.320353 c 0.367598,1.276195 1.098173,3.802228 1.6235,5.613408 0.525327,1.81118 0.938538,3.319918 0.918245,3.352751 -0.04278,0.06922 -1.543992,0.07944 -2.072353,0.01411 L 25.172527,41.971862 24.78839,40.815574 C 24.27901,39.282292 24.153791,39.0275 23.880943,38.96912 23.587901,38.90642 22.54821,38.89745 21.981139,38.95272 l -0.466158,0.04544 -0.499127,1.531815 -0.499126,1.531816 -1.114497,-0.0011 c -0.612974,-5.74e-4 -1.160436,-0.03017 -1.216583,-0.06571 z"
       id="path2270" /><path
       style="fill:#246bce;fill-opacity:1;stroke:#ffffff;stroke-width:0.0395158;stroke-linejoin:round;stroke-dasharray:none;stroke-opacity:0"
       d="m 14.068784,42.008 c -0.03827,-0.06434 -3.418869,-11.176653 -3.418869,-11.238108 0,-0.02345 0.570843,-0.03383 1.268541,-0.02305 l 1.26854,0.01958 0.865028,2.566384 c 0.772328,2.291356 0.8804,2.564192 1.008462,2.545939 0.248169,-0.03537 0.574251,-0.787492 1.306545,-3.013595 l 0.70152,-2.132552 1.012997,-10e-4 c 1.129633,-0.0011 1.461226,0.04151 1.461226,0.187908 0,0.0546 -0.599555,1.978849 -1.332345,4.276102 -0.73279,2.297253 -1.525363,4.781932 -1.761273,5.52151 l -0.428927,1.344686 h -0.959726 c -0.527849,0 -0.974123,-0.0242 -0.991719,-0.05379 z"
       id="path2272" /><path
       style="fill:#246bce;fill-opacity:1;stroke:#ffffff;stroke-width:0.04;stroke-linejoin:round;stroke-dasharray:none;stroke-opacity:0"
       d="m 3.2631054,24.383645 v -5.70147 h 1.075749 1.075749 l 1.076e-4,2.025994 c 6.07e-5,1.114297 0.021426,3.163598 0.047479,4.554004 l 0.047369,2.52801 0.8310497,3.59e-4 c 0.4570773,2.15e-4 1.1457062,0.02121 1.5302864,0.04668 l 0.6992396,0.04632 v 1.10079 1.100792 H 5.9166197 3.2631054 Z"
       id="path2274" /></g></svg>
